<svg width="36" height="39" viewBox="0 0 36 39" fill="none" xmlns="http://www.w3.org/2000/svg">
<path fill-rule="evenodd" clip-rule="evenodd" d="M25.5488 13.3674C31.3218 13.3674 36 17.9821 36 23.6719C36 29.3617 31.3211 33.9764 25.5488 33.9764C23.9974 33.9764 22.5261 33.6422 21.203 33.0452C21.7616 31.7043 22.0709 30.2359 22.0709 28.6962C22.0709 24.4841 19.7657 20.8035 16.3311 18.8128C18.0914 15.5725 21.56 13.3667 25.5488 13.3667V13.3674ZM15.8954 0C15.8954 0 6.96963 8.31811 15.5211 16.8884C15.5211 16.8884 24.9685 9.46234 15.8954 0ZM0.915554 8.66152C0.915554 8.66152 6.19137 7.11047 10.6542 9.56422C10.681 9.99171 10.733 10.4213 10.8132 10.8509C11.2721 13.3047 12.5605 15.4343 14.25 17.2461C10.9671 17.9066 3.78289 18.1459 0.914109 8.66295L0.915554 8.66152ZM8.57745 21.8722C9.1093 21.3464 9.98077 21.3464 10.5126 21.8722L10.7626 22.1187C11.3516 22.6994 12.3105 22.6994 12.8994 22.1187L13.1494 21.8722C13.6813 21.3464 14.5528 21.3464 15.0846 21.8722C15.6179 22.3966 15.6179 23.2558 15.0846 23.7802L14.8346 24.0267C14.2456 24.6074 14.2456 25.5528 14.8346 26.1335L15.0846 26.38C15.6179 26.9058 15.6179 27.7636 15.0846 28.288C14.5528 28.8138 13.6813 28.8138 13.1494 28.288L12.8994 28.0415C12.3105 27.4608 11.3516 27.4608 10.7626 28.0415L10.5126 28.288C9.97933 28.8138 9.1093 28.8138 8.57745 28.288C8.04416 27.7636 8.04416 26.9044 8.57745 26.38L8.82748 26.1335C9.41641 25.5528 9.41641 24.6074 8.82748 24.0267L8.57745 23.7802C8.04416 23.2558 8.04416 22.3966 8.57745 21.8722ZM25.3176 18.7779C25.8509 18.2535 26.7209 18.2535 27.2527 18.7779L27.5028 19.0244C28.0917 19.6051 29.0506 19.6051 29.6395 19.0244L29.8896 18.7779C30.4214 18.2535 31.2929 18.2535 31.8247 18.7779C32.3566 19.3037 32.3566 20.1615 31.8247 20.6859L31.5747 20.9324C30.9858 21.5131 30.9858 22.46 31.5747 23.0392L31.8247 23.2857C32.3566 23.8115 32.3566 24.6693 31.8247 25.1937C31.2914 25.7181 30.4214 25.7181 29.8896 25.1937L29.6395 24.9472C29.0506 24.3665 28.0902 24.3665 27.5028 24.9472L27.2527 25.1937C26.7194 25.7181 25.8494 25.7181 25.3176 25.1937C24.7857 24.6679 24.7857 23.8101 25.3176 23.2857L25.5676 23.0392C26.1565 22.4585 26.1565 21.5117 25.5676 20.9324L25.3176 20.6859C24.7857 20.1615 24.7857 19.3023 25.3176 18.7779ZM10.4512 18.391C16.2242 18.391 20.9024 23.0057 20.9024 28.6955C20.9024 34.3853 16.222 39 10.4512 39C4.68038 39 0 34.3875 0 28.6955C0 23.0036 4.68038 18.391 10.4512 18.391Z" fill="#F85E7A"/>
</svg>
