<svg width="176" height="68" viewBox="0 0 176 68" fill="none" xmlns="http://www.w3.org/2000/svg">
<g filter="url(#filter0_d_53_1332)">
<rect x="4" width="168" height="60" rx="16" fill="#6AA61D"/>
<path d="M34.1636 36.12C33.8329 36.12 33.4862 36.112 33.1236 36.096C32.7609 36.0853 32.3929 36.0667 32.0196 36.04C31.6462 36.0133 31.2782 35.976 30.9156 35.928V24.424C31.2836 24.344 31.6756 24.2747 32.0916 24.216C32.5129 24.1573 32.9422 24.112 33.3796 24.08C33.8169 24.048 34.2462 24.032 34.6676 24.032C36.8169 24.032 38.4382 24.5227 39.5316 25.504C40.6302 26.48 41.1796 28.0053 41.1796 30.08C41.1796 31.4933 40.9209 32.6453 40.4036 33.536C39.8862 34.4213 39.1076 35.0747 38.0676 35.496C37.0276 35.912 35.7262 36.12 34.1636 36.12ZM34.8356 34.008C35.6569 34.008 36.3396 33.88 36.8836 33.624C37.4329 33.3627 37.8409 32.944 38.1076 32.368C38.3796 31.7867 38.5156 31.0213 38.5156 30.072C38.5156 29.128 38.3769 28.368 38.0996 27.792C37.8276 27.2107 37.4196 26.7893 36.8756 26.528C36.3316 26.2613 35.6569 26.128 34.8516 26.128C34.6489 26.128 34.4276 26.1387 34.1876 26.16C33.9476 26.1813 33.7236 26.2107 33.5156 26.248V33.952C33.7342 33.9733 33.9502 33.9893 34.1636 34C34.3822 34.0053 34.6062 34.008 34.8356 34.008ZM46.6676 36.168C45.7929 36.168 45.0356 36.0027 44.3956 35.672C43.7609 35.336 43.2702 34.8347 42.9236 34.168C42.5769 33.496 42.4036 32.656 42.4036 31.648C42.4036 30.6293 42.5716 29.784 42.9076 29.112C43.2489 28.44 43.7369 27.9387 44.3716 27.608C45.0116 27.2773 45.7769 27.112 46.6676 27.112C47.5582 27.112 48.3209 27.28 48.9556 27.616C49.5956 27.9467 50.0836 28.448 50.4196 29.12C50.7609 29.7867 50.9316 30.624 50.9316 31.632C50.9316 32.6453 50.7582 33.488 50.4116 34.16C50.0649 34.832 49.5716 35.336 48.9316 35.672C48.2969 36.0027 47.5422 36.168 46.6676 36.168ZM46.6676 34.232C47.0249 34.232 47.3289 34.1547 47.5796 34C47.8356 33.8453 48.0302 33.5813 48.1636 33.208C48.2969 32.8293 48.3636 32.312 48.3636 31.656C48.3636 30.984 48.2969 30.4587 48.1636 30.08C48.0302 29.7013 47.8356 29.4347 47.5796 29.28C47.3289 29.12 47.0249 29.04 46.6676 29.04C46.3102 29.04 46.0036 29.1173 45.7476 29.272C45.4969 29.4267 45.3049 29.6933 45.1716 30.072C45.0382 30.4453 44.9716 30.9627 44.9716 31.624C44.9716 32.296 45.0382 32.8213 45.1716 33.2C45.3049 33.5787 45.4969 33.8453 45.7476 34C46.0036 34.1547 46.3102 34.232 46.6676 34.232ZM53.9931 36L51.6331 27.248H54.0491L55.6171 33.52H55.4891L57.1851 27.248H60.0011L61.6651 33.52H61.4891L63.1131 27.248H65.4251L63.0891 36H60.2651L58.4811 29.4H58.6331L56.8091 36H53.9931ZM66.7254 36V27.248H68.8294L68.9974 28.136H69.1174C69.4428 27.8053 69.8241 27.552 70.2614 27.376C70.6988 27.2 71.1734 27.112 71.6854 27.112C72.2614 27.112 72.7734 27.2267 73.2214 27.456C73.6748 27.68 74.0294 28.0453 74.2854 28.552C74.5414 29.0533 74.6694 29.7173 74.6694 30.544V36H72.1174V30.704C72.1174 30.176 72.0081 29.8107 71.7894 29.608C71.5708 29.4053 71.2694 29.304 70.8854 29.304C70.6934 29.304 70.4988 29.3307 70.3014 29.384C70.1094 29.432 69.9228 29.5093 69.7414 29.616C69.5654 29.7227 69.4081 29.856 69.2694 30.016V36H66.7254ZM76.5067 36V23.072H79.0507V36H76.5067ZM84.8238 36.168C83.9491 36.168 83.1918 36.0027 82.5518 35.672C81.9171 35.336 81.4265 34.8347 81.0798 34.168C80.7331 33.496 80.5598 32.656 80.5598 31.648C80.5598 30.6293 80.7278 29.784 81.0638 29.112C81.4051 28.44 81.8931 27.9387 82.5278 27.608C83.1678 27.2773 83.9331 27.112 84.8238 27.112C85.7145 27.112 86.4771 27.28 87.1118 27.616C87.7518 27.9467 88.2398 28.448 88.5758 29.12C88.9171 29.7867 89.0878 30.624 89.0878 31.632C89.0878 32.6453 88.9145 33.488 88.5678 34.16C88.2211 34.832 87.7278 35.336 87.0878 35.672C86.4531 36.0027 85.6985 36.168 84.8238 36.168ZM84.8238 34.232C85.1811 34.232 85.4851 34.1547 85.7358 34C85.9918 33.8453 86.1865 33.5813 86.3198 33.208C86.4531 32.8293 86.5198 32.312 86.5198 31.656C86.5198 30.984 86.4531 30.4587 86.3198 30.08C86.1865 29.7013 85.9918 29.4347 85.7358 29.28C85.4851 29.12 85.1811 29.04 84.8238 29.04C84.4665 29.04 84.1598 29.1173 83.9038 29.272C83.6531 29.4267 83.4611 29.6933 83.3278 30.072C83.1945 30.4453 83.1278 30.9627 83.1278 31.624C83.1278 32.296 83.1945 32.8213 83.3278 33.2C83.4611 33.5787 83.6531 33.8453 83.9038 34C84.1598 34.1547 84.4665 34.232 84.8238 34.232ZM92.9768 36.16C92.0808 36.16 91.3821 35.928 90.8808 35.464C90.3848 34.9947 90.1368 34.384 90.1368 33.632C90.1368 32.8053 90.4221 32.16 90.9928 31.696C91.5688 31.232 92.4968 30.9573 93.7768 30.872L95.6168 30.72L95.8888 32.128L94.0328 32.28C93.5421 32.3173 93.1875 32.4293 92.9688 32.616C92.7555 32.8027 92.6488 33.0587 92.6488 33.384C92.6488 33.704 92.7475 33.952 92.9448 34.128C93.1421 34.2987 93.4301 34.384 93.8088 34.384C94.0435 34.384 94.2835 34.344 94.5288 34.264C94.7741 34.1787 94.9981 34.0347 95.2008 33.832V30.632C95.2008 30.232 95.1341 29.9173 95.0008 29.688C94.8728 29.4587 94.6621 29.296 94.3688 29.2C94.0808 29.0987 93.6941 29.048 93.2088 29.048C92.8728 29.048 92.4915 29.0773 92.0648 29.136C91.6381 29.1893 91.2301 29.2773 90.8408 29.4V27.48C91.2675 27.3573 91.7341 27.2667 92.2408 27.208C92.7528 27.144 93.2275 27.112 93.6648 27.112C94.5928 27.112 95.3528 27.2267 95.9448 27.456C96.5421 27.6853 96.9821 28.0693 97.2648 28.608C97.5475 29.1413 97.6888 29.8693 97.6888 30.792V36H95.5928L95.4168 35.128H95.2968C95.0355 35.4853 94.7021 35.7467 94.2968 35.912C93.8915 36.0773 93.4515 36.16 92.9768 36.16ZM102.714 36.152C102.069 36.152 101.472 36.0053 100.922 35.712C100.378 35.4187 99.941 34.952 99.6103 34.312C99.285 33.672 99.1223 32.8373 99.1223 31.808C99.1223 30.7893 99.3036 29.9307 99.6663 29.232C100.029 28.5333 100.562 28.0053 101.266 27.648C101.976 27.2853 102.853 27.104 103.898 27.104C104.074 27.104 104.248 27.112 104.418 27.128C104.594 27.1387 104.757 27.152 104.906 27.168V23.072H107.458V36H105.314L105.162 35.08H105.042C104.792 35.4 104.469 35.6587 104.074 35.856C103.685 36.0533 103.232 36.152 102.714 36.152ZM103.466 34.072C103.728 34.072 103.986 34.024 104.242 33.928C104.504 33.832 104.725 33.6827 104.906 33.48V29.144C104.768 29.112 104.608 29.088 104.426 29.072C104.245 29.0507 104.066 29.04 103.89 29.04C103.16 29.04 102.61 29.2373 102.242 29.632C101.874 30.0213 101.69 30.68 101.69 31.608C101.69 32.2427 101.765 32.7387 101.914 33.096C102.064 33.4533 102.269 33.7067 102.53 33.856C102.797 34 103.109 34.072 103.466 34.072ZM113.397 36V27.248H115.501L115.669 28.136H115.789C116.115 27.8053 116.496 27.552 116.933 27.376C117.371 27.2 117.845 27.112 118.357 27.112C118.933 27.112 119.445 27.2267 119.893 27.456C120.347 27.68 120.701 28.0453 120.957 28.552C121.213 29.0533 121.341 29.7173 121.341 30.544V36H118.789V30.704C118.789 30.176 118.68 29.8107 118.461 29.608C118.243 29.4053 117.941 29.304 117.557 29.304C117.365 29.304 117.171 29.3307 116.973 29.384C116.781 29.432 116.595 29.5093 116.413 29.616C116.237 29.7227 116.08 29.856 115.941 30.016V36H113.397ZM127.043 36.168C126.168 36.168 125.411 36.0027 124.771 35.672C124.136 35.336 123.645 34.8347 123.299 34.168C122.952 33.496 122.779 32.656 122.779 31.648C122.779 30.6293 122.947 29.784 123.283 29.112C123.624 28.44 124.112 27.9387 124.747 27.608C125.387 27.2773 126.152 27.112 127.043 27.112C127.933 27.112 128.696 27.28 129.331 27.616C129.971 27.9467 130.459 28.448 130.795 29.12C131.136 29.7867 131.307 30.624 131.307 31.632C131.307 32.6453 131.133 33.488 130.787 34.16C130.44 34.832 129.947 35.336 129.307 35.672C128.672 36.0027 127.917 36.168 127.043 36.168ZM127.043 34.232C127.4 34.232 127.704 34.1547 127.955 34C128.211 33.8453 128.405 33.5813 128.539 33.208C128.672 32.8293 128.739 32.312 128.739 31.656C128.739 30.984 128.672 30.4587 128.539 30.08C128.405 29.7013 128.211 29.4347 127.955 29.28C127.704 29.12 127.4 29.04 127.043 29.04C126.685 29.04 126.379 29.1173 126.123 29.272C125.872 29.4267 125.68 29.6933 125.547 30.072C125.413 30.4453 125.347 30.9627 125.347 31.624C125.347 32.296 125.413 32.8213 125.547 33.2C125.68 33.5787 125.872 33.8453 126.123 34C126.379 34.1547 126.685 34.232 127.043 34.232ZM134.368 36L132.008 27.248H134.424L135.992 33.52H135.864L137.56 27.248H140.376L142.04 33.52H141.864L143.488 27.248H145.8L143.464 36H140.64L138.856 29.4H139.008L137.184 36H134.368Z" fill="white"/>
</g>
<defs>
<filter id="filter0_d_53_1332" x="0" y="0" width="176" height="68" filterUnits="userSpaceOnUse" color-interpolation-filters="sRGB">
<feFlood flood-opacity="0" result="BackgroundImageFix"/>
<feColorMatrix in="SourceAlpha" type="matrix" values="0 0 0 0 0 0 0 0 0 0 0 0 0 0 0 0 0 0 127 0" result="hardAlpha"/>
<feOffset dy="4"/>
<feGaussianBlur stdDeviation="2"/>
<feColorMatrix type="matrix" values="0 0 0 0 0.0117647 0 0 0 0 0.113725 0 0 0 0 0.356863 0 0 0 0.25 0"/>
<feBlend mode="normal" in2="BackgroundImageFix" result="effect1_dropShadow_53_1332"/>
<feBlend mode="normal" in="SourceGraphic" in2="effect1_dropShadow_53_1332" result="shape"/>
</filter>
</defs>
</svg>
