<svg width="208" height="58" viewBox="0 0 208 58" fill="none" xmlns="http://www.w3.org/2000/svg">
<path d="M55.4443 40.26C53.6763 40.26 52.112 40.065 50.7513 39.675C49.3907 39.2763 48.2467 38.674 47.3193 37.868C46.4007 37.0533 45.703 36.0307 45.2263 34.8C44.7583 33.5607 44.5243 32.1047 44.5243 30.432C44.5243 28.3 44.9533 26.4973 45.8113 25.024C46.6693 23.542 47.926 22.4197 49.5813 21.657C51.2367 20.8857 53.2603 20.5 55.6523 20.5C56.3803 20.5 57.0867 20.5347 57.7713 20.604C58.4647 20.6647 59.132 20.7643 59.7733 20.903V25.479C59.21 25.3663 58.625 25.2797 58.0183 25.219C57.4203 25.1497 56.7963 25.115 56.1463 25.115C54.8203 25.115 53.737 25.3013 52.8963 25.674C52.0557 26.038 51.4317 26.61 51.0243 27.39C50.6257 28.1613 50.4263 29.158 50.4263 30.38C50.4263 31.6193 50.6213 32.629 51.0113 33.409C51.4013 34.1803 52.008 34.748 52.8313 35.112C53.6547 35.4673 54.7163 35.645 56.0163 35.645C56.6403 35.645 57.2687 35.5973 57.9013 35.502C58.5427 35.398 59.1667 35.268 59.7733 35.112V39.688C59.1753 39.8613 58.4907 40 57.7193 40.104C56.9567 40.208 56.1983 40.26 55.4443 40.26ZM61.8783 40V21.267C62.5196 21.1197 63.2086 20.9897 63.9453 20.877C64.6906 20.7557 65.449 20.6647 66.2203 20.604C66.9916 20.5347 67.7456 20.5 68.4823 20.5C71.403 20.5 73.613 21.0287 75.1123 22.086C76.6116 23.1433 77.3613 24.7857 77.3613 27.013C77.3613 28.443 77.0146 29.6433 76.3213 30.614C75.628 31.576 74.6573 32.304 73.4093 32.798C72.1613 33.292 70.701 33.539 69.0283 33.539C68.751 33.539 68.4823 33.5347 68.2223 33.526C67.9623 33.5087 67.6936 33.4957 67.4163 33.487V40H61.8783ZM72.9283 40L67.1433 31.212H73.1103L79.0253 40H72.9283ZM69.1583 29.418C70.1116 29.418 70.8396 29.236 71.3423 28.872C71.845 28.508 72.0963 27.8883 72.0963 27.013C72.0963 26.4497 71.9836 25.9903 71.7583 25.635C71.533 25.271 71.1993 25.0023 70.7573 24.829C70.3153 24.6557 69.7736 24.569 69.1323 24.569C68.8203 24.569 68.517 24.582 68.2223 24.608C67.9363 24.634 67.6676 24.673 67.4163 24.725V29.314C67.607 29.3313 67.7976 29.3487 67.9883 29.366C68.179 29.3833 68.3696 29.3963 68.5603 29.405C68.7596 29.4137 68.959 29.418 69.1583 29.418ZM77.6012 40L83.3472 20.76H91.6412L97.3872 40H91.8752L87.2082 23.165H87.7022L83.0612 40H77.6012ZM82.3982 35.593L83.5812 31.173H91.3812L92.5512 35.593H82.3982ZM98.8471 40V20.76H104.476L112.276 32.876H111.418V20.76H116.709V40H111.08L103.28 27.884H104.138V40H98.8471ZM125.416 40.26C124.87 40.26 124.246 40.2383 123.544 40.195C122.851 40.1603 122.149 40.1083 121.438 40.039C120.736 39.9783 120.104 39.909 119.54 39.831V21.267C120.182 21.1197 120.888 20.9897 121.659 20.877C122.431 20.7557 123.215 20.6647 124.012 20.604C124.818 20.5347 125.581 20.5 126.3 20.5C128.337 20.5 130.001 20.7037 131.292 21.111C132.584 21.5183 133.533 22.1293 134.139 22.944C134.746 23.7587 135.049 24.7813 135.049 26.012C135.049 26.7053 134.911 27.338 134.633 27.91C134.365 28.482 133.992 28.9673 133.515 29.366C133.039 29.756 132.488 30.0247 131.864 30.172V30.016C132.904 30.1893 133.78 30.6357 134.49 31.355C135.21 32.0743 135.569 33.1187 135.569 34.488C135.569 35.398 135.387 36.2127 135.023 36.932C134.668 37.6427 134.092 38.245 133.294 38.739C132.497 39.233 131.453 39.61 130.161 39.87C128.87 40.13 127.288 40.26 125.416 40.26ZM127.002 36.23C127.878 36.23 128.558 36.1563 129.043 36.009C129.537 35.8617 129.884 35.645 130.083 35.359C130.291 35.0643 130.395 34.6917 130.395 34.241C130.395 33.5477 130.183 33.045 129.758 32.733C129.334 32.421 128.597 32.265 127.548 32.265H124.493V28.118H127.119C127.787 28.118 128.315 28.053 128.705 27.923C129.095 27.7843 129.373 27.585 129.537 27.325C129.702 27.0563 129.784 26.7227 129.784 26.324C129.784 25.7 129.585 25.245 129.186 24.959C128.796 24.673 128.094 24.53 127.08 24.53C126.734 24.53 126.387 24.5473 126.04 24.582C125.702 24.6167 125.369 24.6643 125.039 24.725V36.152C125.438 36.178 125.789 36.1997 126.092 36.217C126.396 36.2257 126.699 36.23 127.002 36.23ZM137.517 40V20.76H152.103V25.206H143.081V35.554H152.233V40H137.517ZM140.806 32.408V27.962H150.738V32.408H140.806ZM154.579 40V21.267C155.221 21.1197 155.91 20.9897 156.646 20.877C157.392 20.7557 158.15 20.6647 158.921 20.604C159.693 20.5347 160.447 20.5 161.183 20.5C164.104 20.5 166.314 21.0287 167.813 22.086C169.313 23.1433 170.062 24.7857 170.062 27.013C170.062 28.443 169.716 29.6433 169.022 30.614C168.329 31.576 167.358 32.304 166.11 32.798C164.862 33.292 163.402 33.539 161.729 33.539C161.452 33.539 161.183 33.5347 160.923 33.526C160.663 33.5087 160.395 33.4957 160.117 33.487V40H154.579ZM165.629 40L159.844 31.212H165.811L171.726 40H165.629ZM161.859 29.418C162.813 29.418 163.541 29.236 164.043 28.872C164.546 28.508 164.797 27.8883 164.797 27.013C164.797 26.4497 164.685 25.9903 164.459 25.635C164.234 25.271 163.9 25.0023 163.458 24.829C163.016 24.6557 162.475 24.569 161.833 24.569C161.521 24.569 161.218 24.582 160.923 24.608C160.637 24.634 160.369 24.673 160.117 24.725V29.314C160.308 29.3313 160.499 29.3487 160.689 29.366C160.88 29.3833 161.071 29.3963 161.261 29.405C161.461 29.4137 161.66 29.418 161.859 29.418ZM173.115 40V21.267C173.756 21.1197 174.445 20.9897 175.182 20.877C175.927 20.7557 176.685 20.6647 177.457 20.604C178.228 20.5347 178.982 20.5 179.719 20.5C182.639 20.5 184.849 21.0287 186.349 22.086C187.848 23.1433 188.598 24.7857 188.598 27.013C188.598 28.443 188.251 29.6433 187.558 30.614C186.864 31.576 185.894 32.304 184.646 32.798C183.398 33.292 181.937 33.539 180.265 33.539C179.987 33.539 179.719 33.5347 179.459 33.526C179.199 33.5087 178.93 33.4957 178.653 33.487V40H173.115ZM184.165 40L178.38 31.212H184.347L190.262 40H184.165ZM180.395 29.418C181.348 29.418 182.076 29.236 182.579 28.872C183.081 28.508 183.333 27.8883 183.333 27.013C183.333 26.4497 183.22 25.9903 182.995 25.635C182.769 25.271 182.436 25.0023 181.994 24.829C181.552 24.6557 181.01 24.569 180.369 24.569C180.057 24.569 179.753 24.582 179.459 24.608C179.173 24.634 178.904 24.673 178.653 24.725V29.314C178.843 29.3313 179.034 29.3487 179.225 29.366C179.415 29.3833 179.606 29.3963 179.797 29.405C179.996 29.4137 180.195 29.418 180.395 29.418ZM194.831 40V29.873L195.949 33.981L187.928 20.76H193.856L198.536 28.677H197.028L201.656 20.76H207.142L199.355 33.981L200.473 29.951V40H194.831Z" fill="#F85E7A"/>
<path fill-rule="evenodd" clip-rule="evenodd" d="M25.5488 22.3674C31.3218 22.3674 36 26.9821 36 32.6719C36 38.3617 31.3211 42.9764 25.5488 42.9764C23.9974 42.9764 22.5261 42.6422 21.203 42.0452C21.7616 40.7043 22.0709 39.2359 22.0709 37.6962C22.0709 33.4841 19.7657 29.8035 16.3311 27.8128C18.0914 24.5725 21.56 22.3667 25.5488 22.3667V22.3674ZM15.8954 9C15.8954 9 6.96963 17.3181 15.5211 25.8884C15.5211 25.8884 24.9685 18.4623 15.8954 9ZM0.915554 17.6615C0.915554 17.6615 6.19137 16.1105 10.6542 18.5642C10.681 18.9917 10.733 19.4213 10.8132 19.8509C11.2721 22.3047 12.5605 24.4343 14.25 26.2461C10.9671 26.9066 3.78289 27.1459 0.914109 17.6629L0.915554 17.6615ZM8.57745 30.8722C9.1093 30.3464 9.98077 30.3464 10.5126 30.8722L10.7626 31.1187C11.3516 31.6994 12.3105 31.6994 12.8994 31.1187L13.1494 30.8722C13.6813 30.3464 14.5528 30.3464 15.0846 30.8722C15.6179 31.3966 15.6179 32.2558 15.0846 32.7802L14.8346 33.0267C14.2456 33.6074 14.2456 34.5528 14.8346 35.1335L15.0846 35.38C15.6179 35.9058 15.6179 36.7636 15.0846 37.288C14.5528 37.8138 13.6813 37.8138 13.1494 37.288L12.8994 37.0415C12.3105 36.4608 11.3516 36.4608 10.7626 37.0415L10.5126 37.288C9.97933 37.8138 9.1093 37.8138 8.57745 37.288C8.04416 36.7636 8.04416 35.9044 8.57745 35.38L8.82748 35.1335C9.41641 34.5528 9.41641 33.6074 8.82748 33.0267L8.57745 32.7802C8.04416 32.2558 8.04416 31.3966 8.57745 30.8722ZM25.3176 27.7779C25.8509 27.2535 26.7209 27.2535 27.2527 27.7779L27.5028 28.0244C28.0917 28.6051 29.0506 28.6051 29.6395 28.0244L29.8896 27.7779C30.4214 27.2535 31.2929 27.2535 31.8247 27.7779C32.3566 28.3037 32.3566 29.1615 31.8247 29.6859L31.5747 29.9324C30.9858 30.5131 30.9858 31.46 31.5747 32.0392L31.8247 32.2857C32.3566 32.8115 32.3566 33.6693 31.8247 34.1937C31.2914 34.7181 30.4214 34.7181 29.8896 34.1937L29.6395 33.9472C29.0506 33.3665 28.0902 33.3665 27.5028 33.9472L27.2527 34.1937C26.7194 34.7181 25.8494 34.7181 25.3176 34.1937C24.7857 33.6679 24.7857 32.8101 25.3176 32.2857L25.5676 32.0392C26.1565 31.4585 26.1565 30.5117 25.5676 29.9324L25.3176 29.6859C24.7857 29.1615 24.7857 28.3023 25.3176 27.7779ZM10.4512 27.391C16.2242 27.391 20.9024 32.0057 20.9024 37.6955C20.9024 43.3853 16.222 48 10.4512 48C4.68038 48 0 43.3875 0 37.6955C0 32.0036 4.68038 27.391 10.4512 27.391Z" fill="#F85E7A"/>
</svg>
